<?xml version="1.0" encoding="UTF-8" standalone="no"?><!DOCTYPE svg PUBLIC "-//W3C//DTD SVG 1.1//EN" "http://www.w3.org/Graphics/SVG/1.1/DTD/svg11.dtd"><svg width="100%" height="100%" viewBox="0 0 3691 3975" version="1.1" xmlns="http://www.w3.org/2000/svg" xmlns:xlink="http://www.w3.org/1999/xlink" xml:space="preserve" xmlns:serif="http://www.serif.com/" style="fill-rule:evenodd;clip-rule:evenodd;stroke-linejoin:round;stroke-miterlimit:2;"><path d="M0,0l0,3974.09l3690.93,0l-0,-3974.09l-3690.93,0Zm3621.71,70.56l-0,3825.04l-3552.49,0l-0,-3825.04l3552.49,-0Z" style="fill:#231f20;fill-rule:nonzero;"/><path d="M1845.46,652.122c192.76,0 349.023,156.263 349.023,349.011c0,192.747 -156.263,348.997 -349.023,348.997c-192.748,0 -349.011,-156.25 -349.011,-348.997c0,-192.748 156.263,-349.011 349.011,-349.011Z" style="fill:#231f20;fill-rule:nonzero;"/><path d="M1845.46,2312.14c117.76,0 226.81,-37.226 316.028,-100.546l1155.47,-851.042c70.612,-52.162 116.42,-135.99 116.42,-230.521c-0,-41.797 -8.946,-81.484 -25.053,-117.292l-173.281,-370l-801.693,0l129.415,277.565c2.564,5.443 3.997,11.524 3.997,17.956c-0,14.258 -7.057,26.888 -17.904,34.531l-679.075,500.652c-6.862,4.843 -15.274,7.708 -24.323,7.708c-9.05,-0 -17.435,-2.865 -24.323,-7.708l-679.063,-500.652c-10.833,-7.643 -17.903,-20.273 -17.903,-34.531c-0,-6.432 1.432,-12.513 3.997,-17.956l129.414,-277.565l-801.68,0l-173.294,370c-16.094,35.808 -25.052,75.495 -25.052,117.292c0,94.531 45.807,178.359 116.432,230.521l1155.46,851.042c89.232,63.32 198.281,100.546 316.016,100.546Z" style="fill:#231f20;fill-rule:nonzero;"/><path d="M2839.21,3416.65l-2021.99,0l-0,-209.257l-59.792,209.257l-320.69,0l-137.709,-482.851l-48.906,0l0,-268.151l3110.89,0l-0,304.388c-0,0 38.971,0 39.244,0.104c11.993,155.847 -12.252,307.995 -141.432,399.024c-85.664,63.606 -220.508,82.161 -319.7,38.489c-36.211,-13.138 -67.305,-39.297 -100.599,-60.377c-0.717,2.2 0.69,69.374 0.69,69.374Zm-1956.77,-269.062l-0,-213.789l-59.792,213.789l59.792,0Zm320.69,0l34.427,0l0,-213.789l-34.427,0l0,213.789Zm699.362,0l-0,-213.789l-55.247,0l-75.196,73.373l114.154,140.416l16.289,0Zm322.513,0l34.414,0l-0,-213.789l-34.414,0l0,213.789Z" style="fill:#ed1c24;fill-rule:nonzero;"/><path d="M3307.87,3029.66c7.747,105.105 -20.521,206.954 -107.605,267.644c-66.067,47.695 -168.997,53.997 -241.367,17.604c-111.51,-48.789 -146.771,-168.438 -144.362,-283.672c8.203,-112.318 54.857,-236.862 173.073,-275.755c63.815,-22.331 133.346,-2.63 184.011,33.724l14.557,-27.526l88.32,-0l0,208.359c0,0 -96.471,0 -96.745,0.104c-5.703,-41.341 -15.026,-86.732 -56.302,-107.838c-22.448,-12.37 -58.672,-11.003 -79.713,4.179c-70.443,59.987 -51.094,165.847 -46.927,254.271c7.877,44.245 23.711,101.511 75.143,111.771c15.208,1.497 32.604,0.065 45.677,-8.594c30.482,-22.409 43.581,-60.052 44.388,-96.289l-67.148,0.013l-0,-97.838c-0,-0 216.237,-0.326 215,-0.157Zm-1376.38,-267.981l268.138,-0l0,109.609l-50.716,0l0,336.107l50.716,-0l0,111.406l-268.138,0l0,-111.406l48.907,-0l-0,-336.107l-48.907,0l0,-109.609Zm-1025.49,-0l269.961,-0l-0,109.609l-47.11,0l0,336.107l52.552,-0l0,111.406l-271.784,0l0,-111.406l47.11,-0l-0,-336.107l-50.729,0l-0,-109.609Zm-558.034,-0l246.406,-0l-0,109.609l-45.3,0l72.474,296.224l67.032,-296.224l-41.667,0l0,-109.609l190.247,-0l0,109.609l-36.25,0l-125.013,447.513l-164.869,0l-130.456,-447.513l-32.604,0l-0,-109.609Zm1940.47,-0l202.916,-0l164.883,313.437l-0,-203.828l-49.831,0l0,-109.609l200.651,-0l0,109.609l-56.627,0l-0,447.513l-141.328,0l-172.11,-330.651l0,219.245l48.932,-0l0,111.406l-199.322,0l-0,-111.406l48.932,-0l-0,-336.107l-47.096,0l-0,-109.609Zm-1029.13,-0l262.708,-0l0,109.609l-43.476,0l-0,149.479l9.961,0l151.289,-149.479l-70.664,0l-0,-109.609l262.721,-0l-0,109.609l-42.578,0l-139.518,135.886l161.25,200.221l35.325,-0l0,111.406l-273.568,0l0,-111.406l41.667,-0l-125.924,-176.667l-9.961,0l-0,176.667l43.476,-0l0,111.406l-259.088,0l-0,-111.406l48.919,-0l-0,-336.107l-52.539,0l-0,-109.609Z" style="fill:#fff;fill-rule:nonzero;"/><path d="M308.034,3540.35l24.726,0l0,165.013l98.373,0l-0,20.808l-123.099,0l-0,-185.821Z" style="fill:#403f41;fill-rule:nonzero;"/><rect x="452.474" y="3540.35" width="24.714" height="185.821" style="fill:#403f41;fill-rule:nonzero;"/><path d="M517.539,3540.35l122.057,0l0,20.834l-97.343,-0l-0,59.076l85.364,-0l0,20.807l-85.364,-0l-0,85.104l-24.714,0l0,-185.821Z" style="fill:#403f41;fill-rule:nonzero;"/><path d="M665.612,3540.35l128.307,0l0,20.834l-103.58,-0l-0,59.076l96.549,-0l0,20.807l-96.549,-0l-0,64.296l104.362,0l-0,20.808l-129.089,0l-0,-185.821Z" style="fill:#403f41;fill-rule:nonzero;"/><rect x="816.042" y="3643.41" width="75.208" height="20.833" style="fill:#403f41;fill-rule:nonzero;"/><path d="M1030.74,3594.75c-2.864,-26.55 -20.56,-37.995 -46.054,-37.995c-20.834,-0 -41.654,7.539 -41.654,31.744c-0,22.904 29.674,26.29 59.596,33.048c29.675,6.77 59.349,17.187 59.349,53.606c0,39.57 -38.776,55.443 -72.617,55.443c-41.641,0 -76.771,-20.3 -76.771,-65.586l23.425,-0c-0,31.237 26.015,44.779 54.127,44.779c22.383,-0 47.11,-7.031 47.11,-33.842c-0,-25.507 -29.675,-29.934 -59.336,-36.445c-29.675,-6.497 -59.61,-15.091 -59.61,-49.179c0,-37.748 33.581,-54.402 67.422,-54.402c37.995,0 66.875,17.969 68.438,58.829l-23.425,-0Z" style="fill:#403f41;fill-rule:nonzero;"/><path d="M1154.1,3562.75l0.52,0l30.977,86.654l-62.982,-0l31.485,-86.654Zm-85.625,163.425l25.507,0l20.821,-55.938l78.593,0l20.3,55.938l27.331,0l-72.618,-185.821l-27.317,0l-72.617,185.821Z" style="fill:#403f41;fill-rule:nonzero;"/><path d="M1331.08,3726.17l-28.112,0l-65.586,-185.821l26.81,0l53.099,161.107l0.507,0l53.62,-161.107l25.755,0l-66.093,185.821Z" style="fill:#403f41;fill-rule:nonzero;"/><rect x="1416.69" y="3540.35" width="24.726" height="185.821" style="fill:#403f41;fill-rule:nonzero;"/><path d="M1481.5,3540.35l26.289,0l97.852,150.69l0.521,0l-0,-150.69l23.424,0l0,185.821l-27.07,0l-97.07,-149.128l-0.521,0l-0,149.128l-23.425,0l0,-185.821Z" style="fill:#403f41;fill-rule:nonzero;"/><path d="M1807.33,3703.01c-14.31,19.518 -37.735,27.591 -59.597,27.591c-55.429,0 -88.489,-45.274 -88.489,-93.685c-0,-54.128 29.674,-100.99 88.489,-100.99c40.599,0 72.865,18.23 79.896,61.68l-24.726,0c-4.935,-28.099 -27.578,-40.846 -55.17,-40.846c-45.026,-0 -63.763,39.036 -63.763,78.841c0,38.789 22.383,74.193 63.763,74.193c38.256,-0 61.159,-26.823 59.597,-60.651l-59.336,-0l-0,-20.821l81.458,0l0,97.852l-15.612,0l-6.51,-23.164Z" style="fill:#403f41;fill-rule:nonzero;"/><path d="M1935.64,3540.35l128.294,0l0,20.834l-103.567,-0l-0,59.076l96.549,-0l-0,20.807l-96.549,-0l-0,64.296l104.349,0l-0,20.808l-129.076,0l-0,-185.821Z" style="fill:#403f41;fill-rule:nonzero;"/><path d="M2177.16,3688.18l20.56,16.393c-7.812,3.386 -16.172,5.222 -25.768,5.222c-45.299,-0 -64.284,-39.05 -64.284,-76.524c0,-37.474 18.985,-76.51 64.284,-76.51c45.261,-0 64.284,39.036 64.284,76.51c-0,22.37 -6.784,45.274 -21.367,59.597l-24.701,-19.779l-13.008,15.091Zm80.131,38.516l-24.454,-19.519c18.738,-18.216 28.099,-45.546 28.099,-73.906c0,-50.482 -29.908,-97.344 -88.984,-97.344c-59.088,0 -89.023,46.862 -89.023,97.344c-0,50.495 29.935,97.331 89.023,97.331c17.409,0 32.279,-3.906 44.492,-11.185l28.373,22.904l12.474,-15.625Z" style="fill:#403f41;fill-rule:nonzero;"/><path d="M2438.18,3659.02c0,46.862 -26.81,71.576 -73.138,71.576c-47.865,0 -76.237,-22.122 -76.237,-71.576l0,-118.672l24.727,0l-0,118.672c-0,32.8 18.737,50.769 51.51,50.769c31.25,-0 48.411,-17.969 48.411,-50.769l0,-118.672l24.727,0l0,118.672Z" style="fill:#403f41;fill-rule:nonzero;"/><rect x="2477.49" y="3540.35" width="24.701" height="185.821" style="fill:#403f41;fill-rule:nonzero;"/><path d="M2567.25,3561.18l48.424,-0c27.839,-0 40.599,11.966 40.599,34.088c0,22.123 -12.76,34.349 -40.599,34.089l-48.424,-0l-0,-68.177Zm-24.714,164.987l24.714,0l-0,-75.977l56.731,0c36.954,0.248 57.006,-20.573 57.006,-54.922c-0,-34.362 -20.052,-54.922 -57.006,-54.922l-81.445,0l0,185.821Z" style="fill:#403f41;fill-rule:nonzero;"/><path d="M2710.4,3540.35l33.815,0l58.555,156.159l58.828,-156.159l33.854,0l-0,185.821l-23.425,0l0,-154.597l-0.534,0l-58.047,154.597l-21.067,0l-58.034,-154.597l-0.508,0l0,154.597l-23.437,0l-0,-185.821Z" style="fill:#403f41;fill-rule:nonzero;"/><path d="M2935.23,3540.35l128.321,0l-0,20.834l-103.568,-0l-0,59.076l96.55,-0l-0,20.807l-96.55,-0l-0,64.296l104.336,0l-0,20.808l-129.089,0l0,-185.821Z" style="fill:#403f41;fill-rule:nonzero;"/><path d="M3092.7,3540.35l26.302,0l97.852,150.69l0.508,0l-0,-150.69l23.437,0l0,185.821l-27.07,0l-97.07,-149.128l-0.534,0l-0,149.128l-23.425,0l0,-185.821Z" style="fill:#403f41;fill-rule:nonzero;"/><path d="M3321.73,3561.18l-61.953,-0l-0,-20.834l148.607,0l-0,20.834l-61.954,-0l0,164.987l-24.7,0l-0,-164.987Z" style="fill:#403f41;fill-rule:nonzero;"/><path d="M3354.02,3426.13l0,-86.003l-31.419,0l0,-10.56l75.261,0l-0,10.56l-31.42,0l0,86.003l-12.422,-0Zm60.925,-0l-0,-96.563l19.948,0l31.172,78.308l30.208,-78.308l19.948,0l-0,96.563l-12.435,-0l0,-85.3l-0.456,0l-34.245,85.3l-7.005,-0l-34.231,-85.3l-0.469,0l-0,85.3l-12.435,-0Z" style="fill:#403f41;fill-rule:nonzero;"/></svg>