<?xml version="1.0" encoding="UTF-8" standalone="no"?><!DOCTYPE svg PUBLIC "-//W3C//DTD SVG 1.1//EN" "http://www.w3.org/Graphics/SVG/1.1/DTD/svg11.dtd"><svg width="100%" height="100%" viewBox="0 0 23 23" version="1.1" xmlns="http://www.w3.org/2000/svg" xmlns:xlink="http://www.w3.org/1999/xlink" xml:space="preserve" xmlns:serif="http://www.serif.com/" style="fill-rule:evenodd;clip-rule:evenodd;stroke-linejoin:round;stroke-miterlimit:2;"><path d="M22.5,5.887c0,-3.249 -2.638,-5.887 -5.887,-5.887l-10.726,0c-3.249,0 -5.887,2.638 -5.887,5.887l0,10.726c0,3.249 2.638,5.887 5.887,5.887l10.726,0c3.249,0 5.887,-2.638 5.887,-5.887l0,-10.726Zm-5.227,3.728c-0,-1.481 -1.219,-2.7 -2.7,-2.7l-6.908,0c-1.481,0 -2.7,1.219 -2.7,2.7l0,3.218c0,1.481 1.219,2.7 2.7,2.7l6.908,-0c1.481,-0 2.7,-1.219 2.7,-2.7l-0,-3.218Zm-4.058,1.845l-3.09,1.538c-0.12,0.06 -0.532,-0 -0.532,-0.165l-0,-3.143c-0,-0.142 0.412,-0.225 0.532,-0.157l3,1.612c0.082,0.068 0.218,0.248 0.09,0.315Z" style="fill:#fff;"/></svg>