<?xml version="1.0" encoding="UTF-8" standalone="no"?><!DOCTYPE svg PUBLIC "-//W3C//DTD SVG 1.1//EN" "http://www.w3.org/Graphics/SVG/1.1/DTD/svg11.dtd"><svg width="100%" height="100%" viewBox="0 0 23 23" version="1.1" xmlns="http://www.w3.org/2000/svg" xmlns:xlink="http://www.w3.org/1999/xlink" xml:space="preserve" xmlns:serif="http://www.serif.com/" style="fill-rule:evenodd;clip-rule:evenodd;stroke-linejoin:round;stroke-miterlimit:2;"><path d="M0,16.343l0,-10.553c0.008,-3.173 2.617,-5.782 5.79,-5.79l10.553,0c3.17,0.012 5.774,2.62 5.782,5.79l0,10.553c0.004,3.177 -2.605,5.796 -5.782,5.805l-3.548,-0l0,-7.5l2.573,-0l0.495,-3.195l-3.068,-0l0,-2.1c-0.004,-0.047 -0.006,-0.095 -0.006,-0.142c-0,-0.876 0.721,-1.597 1.597,-1.597c0.07,-0 0.14,0.004 0.209,0.013l1.395,0l0,-2.73c-0.824,-0.131 -1.656,-0.201 -2.49,-0.21c-2.527,0 -4.177,1.5 -4.177,4.306l-0,2.437l-2.798,0l0,3.218l2.813,-0l-0,7.5l-3.548,-0c-3.179,-0.009 -5.79,-2.627 -5.79,-5.805Z" style="fill:#fff;fill-rule:nonzero;"/></svg>