<?xml version="1.0" encoding="UTF-8" standalone="no"?><!DOCTYPE svg PUBLIC "-//W3C//DTD SVG 1.1//EN" "http://www.w3.org/Graphics/SVG/1.1/DTD/svg11.dtd"><svg width="100%" height="100%" viewBox="0 0 23 23" version="1.1" xmlns="http://www.w3.org/2000/svg" xmlns:xlink="http://www.w3.org/1999/xlink" xml:space="preserve" xmlns:serif="http://www.serif.com/" style="fill-rule:evenodd;clip-rule:evenodd;stroke-linejoin:round;stroke-miterlimit:2;"><path d="M22.5,5.887c0,-3.249 -2.638,-5.887 -5.887,-5.887l-10.726,0c-3.249,0 -5.887,2.638 -5.887,5.887l0,10.726c0,3.249 2.638,5.887 5.887,5.887l10.726,0c3.249,0 5.887,-2.638 5.887,-5.887l0,-10.726Zm-8.49,12.06c2.142,-0.004 3.903,-1.765 3.908,-3.907l-0.001,-5.19c-0.004,-2.142 -1.765,-3.903 -3.907,-3.907l-5.197,-0c-2.141,0.004 -3.901,1.766 -3.901,3.907l0,5.19c0,2.141 1.76,3.903 3.901,3.907l5.197,0Zm0,-11.782l-5.198,-0c-1.468,-0 -2.677,1.209 -2.677,2.677l0,5.198c-0,1.47 1.207,2.681 2.678,2.685l5.197,0c1.47,-0.004 2.678,-1.215 2.678,-2.685l-0,-5.198c-0,-1.468 -1.209,-2.677 -2.678,-2.677Zm-2.542,2.085c-1.757,0 -3.203,1.446 -3.203,3.203c0,1.756 1.446,3.202 3.203,3.202c1.756,0 3.202,-1.446 3.202,-3.202c0,-1.757 -1.446,-3.203 -3.202,-3.203Zm-0,5.25c-0.003,0 -0.005,0 -0.008,0c-1.127,0 -2.055,-0.928 -2.055,-2.055c0,-1.127 0.928,-2.055 2.055,-2.055c1.127,0 2.055,0.928 2.055,2.055c0,0.003 0,0.005 0,0.008c-0.004,1.121 -0.926,2.043 -2.047,2.047Zm3.39,-6.24c-0.412,0 -0.75,0.339 -0.75,0.75c-0,0.411 0.338,0.75 0.75,0.75c0.411,0 0.75,-0.339 0.75,-0.75c-0,-0.411 -0.339,-0.75 -0.75,-0.75Z" style="fill:#fff;"/></svg>