<?xml version="1.0" encoding="UTF-8" standalone="no"?><!DOCTYPE svg PUBLIC "-//W3C//DTD SVG 1.1//EN" "http://www.w3.org/Graphics/SVG/1.1/DTD/svg11.dtd"><svg width="100%" height="100%" viewBox="0 0 648 116" version="1.1" xmlns="http://www.w3.org/2000/svg" xmlns:xlink="http://www.w3.org/1999/xlink" xml:space="preserve" xmlns:serif="http://www.serif.com/" style="fill-rule:evenodd;clip-rule:evenodd;stroke-linejoin:round;stroke-miterlimit:2;"><g id="_-04529cff" serif:id="#04529cff"><path id="path42" d="M55.32,0.857c6.8,-2.33 14.78,0.23 19.05,5.98c6.18,8.41 12.13,16.99 18.28,25.43c6.76,-6.78 13.37,-13.72 20.37,-20.24c5.71,7.13 10.73,14.79 16.03,22.22c1.55,1.45 -0.19,2.93 -1.23,3.98c-11.35,11.32 -22.67,22.69 -34.01,34.02c-2.61,3.16 -8.23,3.35 -10.61,-0.18c-9.93,-13.77 -19.71,-27.64 -29.57,-41.46c-2.18,-3.15 -5.19,-5.79 -8.79,-7.16c-3.76,-1.7 -7.97,-0.77 -11.94,-1.3c1.39,-4.14 5.35,-6.52 8.13,-9.65c4.5,-4.14 8.24,-9.66 14.29,-11.64Z" style="fill:#04529c;fill-rule:nonzero;"/><path id="path44" d="M150.58,17.277c23.65,0.1 47.3,-0.03 70.95,0.07c-0.06,5.19 -0,10.37 -0.06,15.56c-8.18,0.06 -16.35,-0.04 -24.52,0.03c-0.11,21.15 0.03,42.29 -0.07,63.44c-7.39,0.05 -14.79,-0.04 -22.18,0.06c0.09,-21.17 -0.04,-42.34 0.07,-63.52c-8.01,0.01 -16.02,-0.06 -24.02,0.06c-0.4,-5.22 -0.13,-10.46 -0.17,-15.7Z" style="fill:#04529c;fill-rule:nonzero;"/><path id="path46" d="M242.08,17.327c8.96,-0.05 17.91,0.03 26.86,-0.05c10.44,26.35 20.84,52.71 31.17,79.09c-8.28,0.02 -16.55,0.09 -24.83,-0.04c-1.72,-5.31 -3.55,-10.58 -5.45,-15.82c-10.53,-0.02 -21.05,-0.03 -31.57,0.02c-1.84,5.29 -3.58,10.61 -5.45,15.89c-7.32,0 -14.63,-0.11 -21.94,0.06c10.37,-26.4 20.82,-52.76 31.21,-79.15m1.35,48.57c7.14,0.14 14.29,0.06 21.44,0.02c-3.49,-11.04 -6.71,-22.16 -10.31,-33.16c-4.1,10.91 -7.47,22.08 -11.13,33.14Z" style="fill:#04529c;fill-rule:nonzero;"/><path id="path48" d="M308.87,17.267c7.37,0.03 14.74,0.05 22.12,0c-0.04,21.22 -0.11,42.44 0.03,63.65c11.86,0.09 23.73,-0.13 35.59,0.1c-0.04,5.12 0.03,10.24 -0.01,15.36c-19.24,0.05 -38.48,-0.08 -57.72,0.08c0.04,-26.4 0.05,-52.79 -0.01,-79.19Z" style="fill:#04529c;fill-rule:nonzero;"/><path id="path50" d="M375.89,17.277c7.38,0.03 14.75,0.08 22.13,-0.02c0.01,21.21 0,42.43 0.01,63.64c11.9,0.08 23.8,-0.01 35.7,0.03c-0.03,5.15 -0.03,10.3 -0.04,15.45c-19.26,0.05 -38.52,-0.06 -57.78,0.06c-0.04,-26.39 0,-52.77 -0.02,-79.16Z" style="fill:#04529c;fill-rule:nonzero;"/><path id="path52" d="M441.94,17.297c7.61,0.01 15.23,0.02 22.84,-0.03c-0.01,26.37 0.02,52.75 -0.01,79.13c-7.62,0.02 -15.23,-0.08 -22.85,0.05c0.03,-26.38 -0.01,-52.77 0.02,-79.15Z" style="fill:#04529c;fill-rule:nonzero;"/><path id="path54" d="M479.33,17.287c10.14,0.03 20.27,0.02 30.41,0.02c9.01,19.51 17.54,39.24 26.79,58.63c-0.33,-19.54 -0.15,-39.09 -0.32,-58.63c6.44,0.03 12.89,-0.12 19.34,0c-0.12,26.36 -0.1,52.72 0,79.07c-9.91,0.07 -19.82,-0.09 -29.72,0.09c-9.21,-20.21 -17.81,-40.7 -27.17,-60.84c-0.09,20.25 0.15,40.51 0.1,60.76c-6.49,0.03 -12.97,0.01 -19.46,-0.01c0.09,-26.36 0.02,-52.73 0.03,-79.09Z" style="fill:#04529c;fill-rule:nonzero;"/><path id="path56" d="M571.85,17.307c7.37,-0.04 14.74,0.06 22.11,-0.07c0.03,11.56 -0.14,23.12 0.07,34.68c8.52,-11.41 16.84,-22.97 25.17,-34.53c8.71,-0.15 17.42,-0.08 26.13,-0.07c-8.9,11.74 -18.27,23.12 -27.17,34.86c9.81,14.74 19.63,29.46 29.44,44.2c-9.12,0.03 -18.25,0.02 -27.37,-0.01c-8.59,-14.04 -17.29,-28.01 -26.17,-41.86c-0.26,13.97 -0.09,27.94 -0.09,41.91c-7.37,-0.04 -14.73,-0.01 -22.1,-0.04c-0.12,-26.35 -0.07,-52.71 -0.02,-79.07Z" style="fill:#04529c;fill-rule:nonzero;"/></g><g id="_-ee4035ff" serif:id="#ee4035ff"><path id="path59" d="M22.67,34.097c7.14,-2.45 15.22,1.18 19.35,7.22c9.96,14.02 19.82,28.1 29.79,42.11c2.46,3.52 5.48,6.93 9.65,8.38c3.82,1.64 8.03,0.87 12.05,1.34c-1.16,3.46 -4.19,5.66 -6.62,8.19c-3.63,3.37 -6.82,7.2 -10.65,10.37c-5.25,4.34 -13.22,5.01 -19.08,1.51c-2.97,-1.63 -5.23,-4.23 -7.14,-6.98c-9.93,-14.09 -19.93,-28.13 -29.84,-42.23c-2.2,-3.14 -5.29,-5.69 -8.88,-7.06c-3.59,-1.34 -7.48,-0.97 -11.23,-1.06c-0.02,-0.55 -0.05,-1.65 -0.07,-2.2c4.46,-4.61 9.1,-9.05 13.56,-13.67c2.53,-2.63 5.52,-4.97 9.11,-5.92Z" style="fill:#ee4035;fill-rule:nonzero;"/></g></svg>